# xmcd CD database file
#
# Track frame offsets:
#	150
#	15805
#	30080
#	43400
#	58195
#	72592
#	87537
#	99407
#	113285
#	128327
#	141192
#	156505
#	171192
#	185362
#	198797
#	212570
#	225567
#	238207
#	251785
#	265375
#
# Disc length: 3731 seconds
#
# Revision: 2
# Processed by: cddbd v1.5.1PL0 Copyright (c) Steve Scherf et al.
# Submitted via: CDex 1.51
#
DISCID=100e9114
DTITLE=Various Artist - Living The Blues - BLUES ROOTS: 1920-1930
DYEAR=1999
DGENRE=Blues
TTITLE0=Mamie Smith and Her Jazz Hounds - Crazy Blues
TTITLE1=Bessie Smith - The St. Louis Blues
TTITLE2=Blind Lemon Jefferson - Match Box Blues
TTITLE3=Jim Jackson - Jim Jackson's Kansas City Blues, Pt. 1
TTITLE4=Pine Top Smith - Pine Top's Boogie Woogie
TTITLE5=Ma Rainey and Her Georgia Jazz Band - See See Rider Blues
TTITLE6=Blind Willie McTell - Statesboro Blues
TTITLE7=Leroy Carr - How Long - How Long Blues, Pt. 1
TTITLE8=Tommy Johnson - Big Road Blues
TTITLE9=Bertha "Chippie" Hill - Troube In Mind
TTITLE10=Blind Willie Johnson - Mother's Children Have A Hard Time
TTITLE11=Sleepy John Estes - Divin' Duck Blues
TTITLE12=Victoria Spivey - Black Snake Blues
TTITLE13=Blind Blake - Diddie Wa Diddie
TTITLE14=Tampa Red and Georgia Tom - It's Tight Like That
TTITLE15=Sippie Wallace - I'm A Mighty Tight Woman
TTITLE16=Mississippi John Hurt - Candy Man Blues
TTITLE17=DeFord Bailey - Pan-American Blues
TTITLE18=Charley Patton - Pony Blues
TTITLE19=Mississippi Sheiks - Sitting On Top Of The World
EXTD=YEAR: 1999
EXTT0=
EXTT1=
EXTT2=
EXTT3=
EXTT4=
EXTT5=
EXTT6=
EXTT7=
EXTT8=
EXTT9=
EXTT10=
EXTT11=
EXTT12=
EXTT13=
EXTT14=
EXTT15=
EXTT16=
EXTT17=
EXTT18=
EXTT19=
PLAYORDER=
